<svg xmlns="http://www.w3.org/2000/svg" viewBox="0 0 633 509" width="633" height="509" preserveAspectRatio="xMidYMid meet" style="width: 100%; height: 100%; transform: translate3d(0px, 0px, 0px);"><defs><clipPath id="__lottie_element_11"><rect width="633" height="509" x="0" y="0"></rect></clipPath></defs><g clip-path="url(#__lottie_element_11)"><g transform="matrix(1,0,0,1,298,256)" opacity="1" style="display: block;"><g opacity="1" transform="matrix(1,0,0,1,0,0)"><path stroke-linecap="round" stroke-linejoin="round" fill-opacity="0" stroke="rgb(8,10,24)" stroke-opacity="1" stroke-width="20" d=" M-284.8949890136719,-190.56900024414062 C-284.8949890136719,-190.56900024414062 -217.76600646972656,-190.56900024414062 -217.76600646972656,-190.56900024414062 C-217.76600646972656,-190.56900024414062 1.4550000429153442,-190.56900024414062 1.4550000429153442,-190.56900024414062 C1.4550000429153442,-190.56900024414062 217.61199951171875,-190.56900024414062 217.61199951171875,-190.56900024414062 C217.61199951171875,-190.56900024414062 285.07598876953125,-190.56900024414062 285.07598876953125,-190.56900024414062"></path></g></g><g transform="matrix(1,0,0,1,298,256)" opacity="1" style="display: block;"><g opacity="1" transform="matrix(1,0,0,1,0,0)"><path stroke-linecap="round" stroke-linejoin="round" fill-opacity="0" stroke="rgb(8,10,24)" stroke-opacity="1" stroke-width="20" d=" M-284.8949890136719,190.56900024414062 C-284.8949890136719,190.56900024414062 -219.64500427246094,190.56900024414062 -219.64500427246094,190.56900024414062 C-219.64500427246094,190.56900024414062 -0.04500000178813934,190.56900024414062 -0.04500000178813934,190.56900024414062 C-0.04500000178813934,190.56900024414062 215.71299743652344,190.56900024414062 215.71299743652344,190.56900024414062 C215.71299743652344,190.56900024414062 285.07598876953125,190.56900024414062 285.07598876953125,190.56900024414062"></path></g></g><g transform="matrix(1,0,0,1,298,256)" opacity="1" style="display: block;"><g opacity="1" transform="matrix(1,0,0,1,0,0)"><path stroke-linecap="round" stroke-linejoin="round" fill-opacity="0" stroke="rgb(8,10,24)" stroke-opacity="1" stroke-width="20" d=" M-284.8949890136719,0.041999999433755875 C-284.8949890136719,0.041999999433755875 285.07598876953125,0.041999999433755875 285.07598876953125,0.041999999433755875"></path></g></g></g></svg>